<svg xmlns="http://www.w3.org/2000/svg" width="150" height="87.165" viewBox="0 0 150 87.165"><g transform="translate(0 0.004)"><path d="M50.319,45.38,47.76,40.45a5.49,5.49,0,0,0-1.183-3.828l-.523-.633-2.421-2.671-4.539-6.444-2.779-5.893-1.073-5.728a2.992,2.992,0,0,0-3.026-2.947c-3.026-.165.083-.881.083-.881L31.281,9.911a5.656,5.656,0,0,0,1.211-3.47V6.386C32.436,5.917,31.5.024,25.586,0c0,0-3.934-.248-5.365,6.306a9.686,9.686,0,0,1-1.1,2.7s.88.055.66.771a2.257,2.257,0,0,0,.138,1.46s-1.431.688-1.6,1.019c-.193.33.385,1.68.385,1.68l-.275.771s-.66.33-.66,1.6-.33,6.967-.33,6.967l-.275,3.525A10.98,10.98,0,0,1,16.149,29.9a27.026,27.026,0,0,0-1.6,4.626l-1.788,7.3-.083.248a5.4,5.4,0,0,0-.22,1.487l.33,2.231-8.5,12.282L0,63.858l2.2,1.707c4.76,3.828,26.191,5.728,25.283,4.792.028,1.157-1.348,11.346-1.348,11.346l-.578,3.718a1.513,1.513,0,0,0,1.623,1.57c2.641.165,2.146-1.6,2.146-1.6l.11-8.124.935-5.838.193-.413,2.449,6.416a86.325,86.325,0,0,1,1.045,8.592c-.028,1.377,1.706,1.294,2.889.826A1.84,1.84,0,0,0,37.8,84.9L35.82,76.47a25.915,25.915,0,0,1-1.568-6.554c5.2.165,17.993-3.029,25.256-6.719,3.026-1.542,4.429-5.26,4.237-5.535-4.484-3-6.328-4.434-13.426-12.282m-34.5-4.048.77-3.057,2.283-6.747c.523-1.542.963-3.084,1.348-4.681l.743-3.084,3.191,7.9Zm16.755-11.07,1.541-6.995,2.394,4.351L43.8,36.87l-3.054-3c-2.228-2.148-8.171-3.607-8.171-3.607" transform="translate(0 0)" fill="#7e1d30"/><g transform="translate(47.272 11.239)"><path d="M387.44,62.507a.793.793,0,0,0-.523.165,1.448,1.448,0,0,0-.33.385c-.083.165-.138.33-.193.468-.055.165-.083.3-.11.385q-.454,1.444-1.073,3.054c-.413,1.1-.853,2.146-1.321,3.191-.578,1.321-.99,2.256-1.266,2.806a3.956,3.956,0,0,1-.578,1.018,3.311,3.311,0,0,1-.22-.688,10,10,0,0,1-.193-1.816c0-1.073.248-3.411.715-7.043.33-2.476.578-4.374.743-5.667.165-1.321.275-2.091.3-2.283q.454-2.27.825-4.209t.743-3.8l.028-.028A2.121,2.121,0,0,0,384.8,47.1a1.661,1.661,0,0,0-.468-.578,1.223,1.223,0,0,0-.77-.22h-.908l-.11.028a.929.929,0,0,0-.605.88,6.115,6.115,0,0,0-.027.963c-.358,2.476-.633,4.732-.908,6.74-.248,2.036-.468,3.714-.605,5.09a.38.38,0,0,1-.11-.083c0-.028-.055-.055-.11-.083A2.663,2.663,0,0,0,378.5,59.1c-1.486,0-2.751,1.733-3.824,5.227a26.95,26.95,0,0,0-.935,3.962c-.165.44-.358.88-.523,1.293A23.517,23.517,0,0,1,371.7,72.6c-.385.605-.715,1.128-.963,1.513-.248.413-.523.605-.77.605a1.593,1.593,0,0,1-.688-.33,2.588,2.588,0,0,1-.825-1.018c-.055-.138-.11-.358-.193-.633a9.354,9.354,0,0,1-.193-.935c-.055-.33-.083-.66-.11-1.018a3.687,3.687,0,0,1,.027-.825.682.682,0,0,0,.578.3,1.319,1.319,0,0,0,.715-.248,3.4,3.4,0,0,0,.743-.578,3.119,3.119,0,0,0,.55-.715,6.053,6.053,0,0,0,.605-1.266,13.82,13.82,0,0,0,.523-1.706,15.485,15.485,0,0,0,.385-1.9,10.241,10.241,0,0,0,.165-1.761,2.794,2.794,0,0,0-.275-1.128,3.659,3.659,0,0,0-.715-1.073,3.084,3.084,0,0,0-2.063-.825,1.461,1.461,0,0,0-.963.33,3.33,3.33,0,0,0-.715.88,6.71,6.71,0,0,0-.55,1.183c-.138.413-.275.825-.385,1.238a25.62,25.62,0,0,0-.77,3.8c-.055.44-.11.853-.165,1.293a38.727,38.727,0,0,1-1.706,4.567c-.22.44-.413.8-.55,1.018-.165.22-.3.413-.385.55a.652.652,0,0,1-.33.248,1.18,1.18,0,0,1-.468-.165,4.044,4.044,0,0,1-.825-.853,7.152,7.152,0,0,1-1.266-4.512.762.762,0,0,1,.083-.358,2,2,0,0,1,.358-.55,2.132,2.132,0,0,0,.275-.33,1.931,1.931,0,0,1,.165-.248A30.028,30.028,0,0,0,364.33,59.4a30.816,30.816,0,0,0,1.431-8.529,8.456,8.456,0,0,0-.3-2.449,4.187,4.187,0,0,0-.8-1.486,2.611,2.611,0,0,0-1.1-.743A3.4,3.4,0,0,0,362.4,46a1.655,1.655,0,0,0-.743.193,1.525,1.525,0,0,0-.743.88,5.964,5.964,0,0,0-.523,2.311,55.539,55.539,0,0,0-1.816,8.639c-.3,2.063-.523,3.934-.66,5.585s-.22,3.136-.22,4.4a12.01,12.01,0,0,0,1.623,6.685,4.077,4.077,0,0,0,3.329,2.118,2.962,2.962,0,0,0,2.283-1.541,10.251,10.251,0,0,0,1.018-1.843,6.77,6.77,0,0,0,.77,1.623,3.824,3.824,0,0,0,3.136,1.926,3.159,3.159,0,0,0,2.7-1.513,10.076,10.076,0,0,0,.825-1.376c.083-.165.165-.33.248-.523a5.245,5.245,0,0,0,.688,1.843,3.169,3.169,0,0,0,1.211,1.266,3.011,3.011,0,0,0,1.128.3,2.259,2.259,0,0,0,1.871-1.155,10.465,10.465,0,0,0,1.183-2.146c.44,1.9,1.321,2.834,2.641,2.834a1.112,1.112,0,0,0,.605-.193,2.823,2.823,0,0,0,.743-.825,13.251,13.251,0,0,0,.935-1.816c.358-.8.743-1.871,1.183-3.191a29.854,29.854,0,0,0,1.706-6.658,8.679,8.679,0,0,1,.028-1.045c.055-.22,0-.275-.11-.275M361.249,57.28q.743-3.3,1.9-7.346a12.96,12.96,0,0,1,.11,2.036,26.1,26.1,0,0,1-1.266,6.465c-.275.935-.578,1.788-.853,2.559-.275.8-.578,1.513-.853,2.173a45.658,45.658,0,0,1,.963-5.887m8.033,5.97q.248-.7.578-1.568c.083-.193.138-.193.165.028a3.869,3.869,0,0,1,.055.5,8.746,8.746,0,0,1-.165,1.706c-.11.55-.22,1.073-.33,1.623a4.827,4.827,0,0,1-.5,1.238,1.2,1.2,0,0,1-.88.715c.028-.44.083-.825.138-1.183,0-.028.028-.055.028-.083.083-.358.165-.688.22-.99a4.743,4.743,0,0,1,.193-.578c.165-.5.33-.935.5-1.4m10.509.88c-.027.193-.055.5-.11.963v.028c-.055.523-.083.99-.11,1.348q-.041.578-.083.908a28.284,28.284,0,0,1-1.293,4.292h-.055a24.437,24.437,0,0,1-.935,2.338c-.22.385-.413.55-.578.44a.961.961,0,0,1-.165-.248,1.753,1.753,0,0,1-.138-.578c-.028-.275-.083-.605-.11-1.045s-.028-.99-.028-1.651a18.232,18.232,0,0,1,1.1-5.943A11.264,11.264,0,0,1,378,63.222a4.081,4.081,0,0,1,.578-.825.712.712,0,0,1,.385-.248h.165a.681.681,0,0,1,.413.193c.165.11.248.523.248,1.183a1.489,1.489,0,0,1,0,.605" transform="translate(-306.418 -44.587)" fill="#7e1d30"/><path d="M441.914,175.262q-.7,0-.908,1.155c-.083.3-.165.578-.22.853s-.138.578-.22.853a39.015,39.015,0,0,1-1.513,4.182,23.513,23.513,0,0,1-1.513,3.026c-.385.605-.715,1.128-.963,1.513s-.523.605-.77.605a1.593,1.593,0,0,1-.688-.33,2.4,2.4,0,0,1-.825-1.018c-.055-.138-.11-.358-.193-.633a9.355,9.355,0,0,1-.193-.935c-.055-.33-.083-.66-.11-1.018a3.689,3.689,0,0,1,.028-.825.682.682,0,0,0,.578.3,1.319,1.319,0,0,0,.715-.248,3.4,3.4,0,0,0,.743-.578,3.119,3.119,0,0,0,.55-.715,6.055,6.055,0,0,0,.605-1.266,13.825,13.825,0,0,0,.523-1.706,15.479,15.479,0,0,0,.385-1.9,10.237,10.237,0,0,0,.165-1.761,2.794,2.794,0,0,0-.275-1.128,3.662,3.662,0,0,0-.715-1.073,3.084,3.084,0,0,0-2.063-.825,1.461,1.461,0,0,0-.963.33,3.331,3.331,0,0,0-.715.88,6.712,6.712,0,0,0-.55,1.183c-.138.413-.275.825-.385,1.238a25.62,25.62,0,0,0-.77,3.8c-.055.44-.11.853-.165,1.293a38.738,38.738,0,0,1-1.706,4.567,7.788,7.788,0,0,1-.55,1.018c-.165.22-.3.413-.385.55a.653.653,0,0,1-.33.248.966.966,0,0,1-.468-.193,4.045,4.045,0,0,1-.825-.853,7.152,7.152,0,0,1-1.266-4.512.763.763,0,0,1,.082-.358,2,2,0,0,1,.358-.55,2.133,2.133,0,0,0,.275-.33,1.929,1.929,0,0,1,.165-.248,30.027,30.027,0,0,0,3.329-7.758,30.817,30.817,0,0,0,1.431-8.529,8.457,8.457,0,0,0-.3-2.449,4.187,4.187,0,0,0-.8-1.486,2.611,2.611,0,0,0-1.1-.743,3.4,3.4,0,0,0-1.155-.193,1.655,1.655,0,0,0-.743.193,1.525,1.525,0,0,0-.743.88,5.965,5.965,0,0,0-.523,2.311,55.543,55.543,0,0,0-1.816,8.639c-.3,2.063-.523,3.934-.66,5.585-.083.935-.138,1.788-.165,2.586v.028a45.825,45.825,0,0,1-2.2,6.163,7.788,7.788,0,0,1-.55,1.018c-.165.22-.3.413-.385.55a.652.652,0,0,1-.33.248.966.966,0,0,1-.468-.193,4.045,4.045,0,0,1-.825-.853,7.152,7.152,0,0,1-1.266-4.512.761.761,0,0,1,.083-.358,2,2,0,0,1,.358-.55,2.133,2.133,0,0,0,.275-.33,1.922,1.922,0,0,1,.165-.248,30.029,30.029,0,0,0,3.329-7.758,30.815,30.815,0,0,0,1.431-8.529,8.457,8.457,0,0,0-.3-2.449,4.187,4.187,0,0,0-.8-1.486,2.611,2.611,0,0,0-1.1-.743,3.4,3.4,0,0,0-1.155-.193,1.655,1.655,0,0,0-.743.193,1.525,1.525,0,0,0-.743.88,5.965,5.965,0,0,0-.523,2.311,55.543,55.543,0,0,0-1.816,8.639c-.3,2.063-.523,3.934-.66,5.585-.083.8-.138,1.568-.165,2.283l-.248.825c-.275.99-.578,2.036-.853,3.081a18.392,18.392,0,0,1-.715,1.981c-.22.468-.413.853-.55,1.128a3.108,3.108,0,0,1-.358.523c-.083.083-.138.11-.165.11-.11-.028-.22-.248-.358-.633a4.121,4.121,0,0,1-.22-1.183c-.027-.5-.055-1.045-.055-1.706q0-.743.083-1.733c.055-.66.138-1.348.248-2.118.11-.688.193-1.238.248-1.678.055-.413.083-.743.11-.963s.055-.385.055-.468a.973.973,0,0,1,.028-.165,2.64,2.64,0,0,1,.193-.688,1.836,1.836,0,0,0,.33-.908,1.457,1.457,0,0,0-.275-.77c-.193-.3-.66-.468-1.431-.5h-.248a1.1,1.1,0,0,0-1.073.688,2.409,2.409,0,0,0-.165,1.431v1.128a9.509,9.509,0,0,1-.193,1.6v.028a11.531,11.531,0,0,0-.22,1.293,4.4,4.4,0,0,1-.11.688,18.925,18.925,0,0,1-1.348,5.337v.028c-.138.3-.275.605-.385.908l-.413.908c-.083.138-.165.275-.248.385a.389.389,0,0,1-.33.193.769.769,0,0,1-.138-.275,3.614,3.614,0,0,1-.11-1.045,43.241,43.241,0,0,1,.605-7.841,2.448,2.448,0,0,1,.055-.3c.028-.138.11-.358.165-.66a4.169,4.169,0,0,0,.193-1.128,1.588,1.588,0,0,0-.523-1.128,1.566,1.566,0,0,0-.633-.468,1.5,1.5,0,0,0-.55-.11,1.289,1.289,0,0,0-.825.22,1.059,1.059,0,0,0-.385.413,1.9,1.9,0,0,0-.083.22c-.028.083-.055.275-.11.55-.027.275-.083.66-.138,1.183s-.11,1.266-.165,2.2c-.055,1.183-.11,2.311-.138,3.329s-.055,1.981-.055,2.889a5.629,5.629,0,0,0,.715,2.834,2.782,2.782,0,0,0,1.1,1.1,2.6,2.6,0,0,0,1.018.248,2.97,2.97,0,0,0,2.5-1.623v-.028a2.545,2.545,0,0,0,.22-.468c.083-.248.275-.688.55-1.321.138.385.275.688.385.963a6.589,6.589,0,0,0,.358.66,1.947,1.947,0,0,0,1.678.963c.743,0,1.431-.5,2.091-1.486a15.356,15.356,0,0,0,1.293-2.614,8.827,8.827,0,0,0,1.183,2.779,4.077,4.077,0,0,0,3.329,2.118,2.962,2.962,0,0,0,2.284-1.541,15.525,15.525,0,0,0,1.651-3.329,8.662,8.662,0,0,0,1.183,2.751,4.077,4.077,0,0,0,3.329,2.118,2.962,2.962,0,0,0,2.283-1.541,10.259,10.259,0,0,0,1.018-1.843,6.769,6.769,0,0,0,.77,1.623,3.824,3.824,0,0,0,3.136,1.926,3.159,3.159,0,0,0,2.7-1.513,10.079,10.079,0,0,0,.825-1.376,17.743,17.743,0,0,0,.853-1.981,49.9,49.9,0,0,0,1.623-5.42c.165-.55.275-1.018.358-1.4s.138-.66.193-.88.083-.385.11-.5c0-.11.027-.193.027-.248a6.008,6.008,0,0,1,.028-.77c-.083-.248-.22-.33-.578-.33m-23.3-5.255q.743-3.3,1.9-7.346a12.953,12.953,0,0,1,.11,2.036,26.1,26.1,0,0,1-1.266,6.465c-.3.935-.578,1.788-.853,2.559s-.578,1.513-.853,2.173a53,53,0,0,1,.963-5.887m8.446,0q.743-3.3,1.9-7.346a12.96,12.96,0,0,1,.11,2.036,26.1,26.1,0,0,1-1.266,6.465c-.275.935-.578,1.788-.853,2.559s-.55,1.458-.853,2.118v-.055a57.309,57.309,0,0,1,.963-5.777m8.033,6q.248-.7.578-1.568c.083-.193.138-.193.193.028a3.873,3.873,0,0,1,.055.5,8.746,8.746,0,0,1-.165,1.706c-.11.55-.22,1.073-.33,1.623a4.47,4.47,0,0,1-.5,1.238,1.2,1.2,0,0,1-.88.715c.027-.44.083-.825.138-1.183,0-.028.028-.055.028-.083.083-.358.165-.688.22-.99a4.75,4.75,0,0,1,.193-.578c.138-.5.3-.935.468-1.4" transform="translate(-339.763 -126.198)" fill="#7e1d30"/><path d="M477.783,108.183a.684.684,0,0,0,.22-.028,1.475,1.475,0,0,0,.3-.138.913.913,0,0,0,.248-.358,1.891,1.891,0,0,0,.083-.605,1.225,1.225,0,0,0-.275-.853,1.035,1.035,0,0,0-.77-.3,1.065,1.065,0,0,0-.66.33,1.007,1.007,0,0,0-.33.688,1.322,1.322,0,0,0,.33.825.926.926,0,0,0,.853.44" transform="translate(-392.607 -87.984)" fill="#7e1d30"/><path d="M485.539,116.241a.9.9,0,0,0-.275-.083.472.472,0,0,0-.44.275,4.276,4.276,0,0,0-.22.633q-.165.619-.33,1.321c-.138.468-.275.935-.413,1.431-.165.468-.3.825-.413,1.1-.138.275-.22.5-.3.66a1.142,1.142,0,0,1-.193.3l-.083.083c-.027,0-.027-.028-.083-.083a.874.874,0,0,1-.11-.3,2.661,2.661,0,0,1-.11-.633c-.028-.275-.055-.66-.055-1.1,0-.358.027-.77.055-1.183.055-.44.11-.88.165-1.4.11-.578.165-.963.193-1.155s.055-.3.055-.33v-.055a.926.926,0,0,0-.275-.633,1.628,1.628,0,0,0-1.155-.385.4.4,0,0,0-.193.055c-.248.165-.413.605-.44,1.348a15.689,15.689,0,0,1-.743,3.411,6.861,6.861,0,0,0-.22.688c-.083.275-.165.633-.275,1.018v.028a4.492,4.492,0,0,1-.055-.99v-1.1a7.221,7.221,0,0,0,.027-.743v-.578a1.38,1.38,0,0,1,.055-.33,2.825,2.825,0,0,1,.11-.385c.083-.248.11-.413.138-.468a.3.3,0,0,0,.027-.138.589.589,0,0,0-.193-.5.709.709,0,0,0-.55-.193.825.825,0,0,0-.853.55,1.115,1.115,0,0,0-.083.275,5.175,5.175,0,0,0-.083.633c0,.028.027.083.027.11-.083.248-.138.5-.22.688-.11.33-.193.605-.275.825q-.33.99-.578,1.568c-.165.385-.275.605-.3.688a3.64,3.64,0,0,1-.33.715c-.083.11-.138.193-.165.193-.083,0-.138-.083-.193-.165a1.361,1.361,0,0,1-.11-.358c-.028-.138-.028-.275-.055-.385v-.3c0-.413.028-.825.055-1.183s.082-.77.165-1.238a6.1,6.1,0,0,0,.165-.935c.055-.3.083-.5.11-.605a.484.484,0,0,1,.028-.165c.027-.083.055-.165.083-.275s.055-.193.082-.275a.537.537,0,0,0,.028-.193.478.478,0,0,0-.165-.3,1.654,1.654,0,0,0-.743-.275,2.077,2.077,0,0,0-.468-.083.272.272,0,0,0-.22.028c-.055.028-.055.083-.055.138v.3a5.849,5.849,0,0,1-.055.825c-.028.413-.083.963-.138,1.623-.138,1.376-.193,2.2-.193,2.531a3.434,3.434,0,0,0,.11.963,3.981,3.981,0,0,0,.3.8,1.539,1.539,0,0,0,.633.633,1.283,1.283,0,0,0,.605.138c.523,0,.99-.385,1.348-1.183a3.963,3.963,0,0,0,.275-.743c.11-.3.22-.715.385-1.211v.11c.028.275.028.578.055.853,0,.275.028.578.055.853v.028a2.48,2.48,0,0,0,.193.633.994.994,0,0,0,.3.358.853.853,0,0,0,.358.165,1.42,1.42,0,0,0,.3.055.831.831,0,0,0,.44-.138,1.135,1.135,0,0,0,.275-.358,1.3,1.3,0,0,0,.165-.413c.055-.138.083-.248.11-.3.138-.523.275-.99.385-1.4.11-.44.22-.825.3-1.155q.041.743.083,1.238c.027.33.082.605.11.8.22,1.238.688,1.843,1.431,1.843.358,0,.688-.33,1.018-.963a18.743,18.743,0,0,0,.99-2.531,14.26,14.26,0,0,0,.825-3.136c-.028-.22-.083-.413-.22-.468" transform="translate(-391.23 -94.356)" fill="#7e1d30"/><path d="M204.589,45.551c-.413-1.513-3.411.825-5.337.99-10.1.908-11.775-6.438-20.744-5.612-4.154.385-7.208,3.329-7.208,7.511a5.139,5.139,0,0,0,5.007,5.2c2.228-.055,4.127-1.4,4.347-3.219.165-1.458-.523-3.632-3.081-3.329-.8.083-1.706.688-1.321,1.486.358.715.688.22,1.541.055.578-.11,1.211.66,1.128,1.458a2.015,2.015,0,0,1-1.678,1.788,3.174,3.174,0,0,1-3.714-3.219c-.11-2.724,1.761-4.264,4.622-4.649,4.952-.688,8.859,2.779,8.859,2.779a4.061,4.061,0,0,0,.028.578c0,.193.028.413.028.605,0,1.4-.248,4.7-.715,9.877-.5,5.255-.715,9.326-.715,12.188a6.083,6.083,0,0,0,1.045,3.989c.055.028.083.055.11.055l.11.055a4.648,4.648,0,0,0,1.4.523h.083a.56.56,0,0,0,.413-.165.528.528,0,0,0,.165-.468c-.138-.935-.22-1.761-.275-2.476a15,15,0,0,1-.028-1.9c.22-3.962.688-8.859,1.431-14.746.248-2.036.468-3.769.66-5.145.083-.578.165-1.1.22-1.568l1.513.413.138.055c.3.083.688.165,1.018.248a14.773,14.773,0,0,0,5.53.358c3.081-.605,5.887-1.926,5.42-3.714" transform="translate(-171.3 -40.864)" fill="#7e1d30"/><path d="M301.473,114.764c-.413-1.513-3.411.853-5.337.99-6.658.5-7.9-1.981-17.3-3.026a5.821,5.821,0,0,0-.66-.055c-.44-.055-.88-.083-1.348-.11-.275-.028-.578-.055-.963-.083s-.77-.055-1.183-.055c-.165-2.118-.22-3.769-.22-4.319a17.274,17.274,0,0,1,.11-2.063c.055-.688.193-1.431.33-2.283a20.847,20.847,0,0,1,.605-2.641.208.208,0,0,0-.027-.275.742.742,0,0,0-.22-.193,1.551,1.551,0,0,0-.33-.11,2.544,2.544,0,0,0-.22-.138,2.178,2.178,0,0,0-.248-.11.861.861,0,0,1-.275-.138.465.465,0,0,0-.275-.083.537.537,0,0,1-.193-.028c-.083,0-.138-.028-.193-.028h-.22a.294.294,0,0,0-.248.165c-.083.11-.11.193-.055.275a.981.981,0,0,1,.028.44,10.754,10.754,0,0,1-.193,1.073,7.2,7.2,0,0,1-.248,1.045c-.083.358-.22.743-.33,1.155-.138.413-.275.88-.44,1.376a24.5,24.5,0,0,1-.853,2.338,6.415,6.415,0,0,1-.66,1.211,1.578,1.578,0,0,1-.55.523c-.11,0-.22-.165-.33-.468a5.981,5.981,0,0,1-.165-1.706,19.49,19.49,0,0,1,.3-3.219,37.9,37.9,0,0,1,.908-3.879c.358-1.211.605-2.091.8-2.586s.33-.825.385-.963c.358.055.605.3.8.77a5.6,5.6,0,0,1,.385,1.651c.027.193.083.3.193.33a.661.661,0,0,0,.33,0,1.03,1.03,0,0,0,.33-.193c.083-.083.165-.138.22-.193a3.024,3.024,0,0,0,.33-.77,4.843,4.843,0,0,0-.027-1.788,2.567,2.567,0,0,0-.413-1.073,4.2,4.2,0,0,0-.8-.908,5.116,5.116,0,0,0-.963-.605,2.682,2.682,0,0,0-.963-.22,1.245,1.245,0,0,0-1.018.55,6.791,6.791,0,0,0-.688,1.045c-.22.44-.44.963-.66,1.541a20.622,20.622,0,0,0-.66,2.146c-.44,1.6-.8,3-1.018,4.209l-.165,1.073v.028c-.3.88-.55,1.568-.8,2.118-.248.523-.44.935-.605,1.238a2.009,2.009,0,0,1-.385.578l-.193.193c-.028,0-.083-.055-.138-.138a2.411,2.411,0,0,1-.22-.55,7.428,7.428,0,0,1-.193-1.21c-.055-.523-.083-1.238-.083-2.118a22.414,22.414,0,0,1,.11-2.256c.083-.8.193-1.706.33-2.641.193-1.1.3-1.816.358-2.2a3.98,3.98,0,0,1,.11-.633v-.11a1.87,1.87,0,0,0-.523-1.211,3.2,3.2,0,0,0-2.2-.743.553.553,0,0,0-.358.11c-.468.3-.77,1.128-.825,2.559a30.1,30.1,0,0,1-1.431,6.493,7.8,7.8,0,0,0-.385,1.321c-.138.523-.3,1.183-.523,1.953v.028a9.746,9.746,0,0,1-.11-1.871c0-.165,0-.413.028-.743,0-.358.028-.77.028-1.321.027-.523.027-1.018.027-1.431v-1.073a2.5,2.5,0,0,1,.083-.633c.055-.22.11-.44.193-.715q.206-.7.248-.908a.947.947,0,0,0,.028-.248,1.307,1.307,0,0,0-.358-.963,1.38,1.38,0,0,0-1.045-.358,1.525,1.525,0,0,0-1.6,1.045,1.552,1.552,0,0,0-.138.5c-.027.22-.083.633-.138,1.211a.615.615,0,0,0,.083.275l.3.633-.193.523c-.165.468-.358,1.155-.605,2.063a17.013,17.013,0,0,1-1.183,2.971c-.275.523-.5.963-.66,1.293a7.342,7.342,0,0,1-.413.743,3.466,3.466,0,0,1-.248.358c-.055.055-.083.11-.11.11a.685.685,0,0,1-.138-.193,2.019,2.019,0,0,1-.248-.578,5.742,5.742,0,0,1-.248-2.146c.055-.385.11-.8.138-1.238.027-.413.083-.825.138-1.183.055-.275.11-.523.193-.8a4.761,4.761,0,0,1,.22-.743.209.209,0,0,0-.028-.275.741.741,0,0,0-.22-.193c-.11-.055-1.513-.8-2.228-.468a.188.188,0,0,0-.055.275.981.981,0,0,1,.028.44c-.028.22-.055.413-.083.605a5.686,5.686,0,0,1-.11.605c-.138.688-.248,1.376-.33,2.036a10.277,10.277,0,0,1-.55,2.146,13.854,13.854,0,0,1-.8,1.953c-.248.44-.413.688-.523.688a.6.6,0,0,1-.275-.11.613.613,0,0,1-.275-.248,2.573,2.573,0,0,1-.275-1.183,30.508,30.508,0,0,1,.248-3.934c.22-1.073.5-2.2.825-3.411.358-1.211.605-2.091.8-2.586s.33-.825.385-.963c.358.055.605.3.8.77a5.6,5.6,0,0,1,.385,1.651c.028.193.083.3.193.33a.66.66,0,0,0,.33,0,1.031,1.031,0,0,0,.33-.193c.083-.083.165-.138.22-.193a3.235,3.235,0,0,0,.33-.743,4.843,4.843,0,0,0-.028-1.788,2.567,2.567,0,0,0-.413-1.073,4.2,4.2,0,0,0-.8-.908,5.116,5.116,0,0,0-.963-.605,2.681,2.681,0,0,0-.963-.22,1.283,1.283,0,0,0-1.018.55,6.793,6.793,0,0,0-.688,1.045A10.963,10.963,0,0,0,247,96.8q-.248.619-.5,1.4c-.165.5-.33,1.018-.468,1.513s-.275.963-.385,1.4c-.165.77-.3,1.486-.385,2.173a17,17,0,0,0-.193,1.761c-.083,3.136.358,5.2,1.321,6.163a2.524,2.524,0,0,0,1.678.688c1.238,0,2.228-.963,2.916-2.861a4.946,4.946,0,0,0,.3.55,3.274,3.274,0,0,1,.248.413,2.3,2.3,0,0,0,1.981,1.045,1.446,1.446,0,0,0,1.128-.55,9.129,9.129,0,0,0,.77-1.128c.275-.468.578-1.073.908-1.788.083-.193.193-.385.275-.578v.248c.028.55.055,1.073.083,1.623v.028a2.986,2.986,0,0,0,.385,1.183,2.077,2.077,0,0,0,.578.688,1.859,1.859,0,0,0,.66.33,2.425,2.425,0,0,0,.578.083,1.247,1.247,0,0,0,.825-.275,2.515,2.515,0,0,0,.55-.66,4.388,4.388,0,0,0,.33-.743c.083-.248.138-.44.193-.578.275-.99.5-1.871.715-2.7.22-.8.413-1.541.55-2.2.055.935.11,1.706.193,2.338a12.24,12.24,0,0,0,.22,1.513c.385,2.338,1.293,3.494,2.7,3.494.66,0,1.321-.605,1.953-1.843a.6.6,0,0,1,.083-.138,3.89,3.89,0,0,0,.5,1.018,2.916,2.916,0,0,0,2.559,1.541c.77,0,1.458-.55,2.063-1.678a2.516,2.516,0,0,0,.028.44,2.424,2.424,0,0,0,.055.468c.028.688.055,1.211.11,1.6-.633.22-1.238.3-1.761.44q-.578.124-1.073.248c-.3.083-1.541.5-1.816.605a14.191,14.191,0,0,0-4.539,2.559,4.74,4.74,0,0,0-2.063,3.852,6.66,6.66,0,0,0,2.256,4.952,7.429,7.429,0,0,0,5.255,2.118,5.338,5.338,0,0,0,5.227-2.916,16.244,16.244,0,0,0,1.128-6.933V114.9a16.645,16.645,0,0,1,4.374.248,20.5,20.5,0,0,1,4.567,1.238.762.762,0,0,0,.027.248,4.46,4.46,0,0,1,.027.605c0,1.4-.248,4.7-.715,9.877-.5,5.255-.715,9.326-.715,12.188a6.083,6.083,0,0,0,1.045,3.989c.055.027.083.055.11.055s.055.028.11.055a4.649,4.649,0,0,0,1.4.523h.083a.56.56,0,0,0,.413-.165.528.528,0,0,0,.165-.468c-.138-.935-.22-1.761-.275-2.476a15,15,0,0,1-.028-1.9c.22-3.962.688-8.859,1.431-14.746.248-2.036.468-3.769.66-5.145.083-.578.165-1.1.22-1.568l1.513.413.138.055c.3.083.688.165,1.018.248a14.773,14.773,0,0,0,5.53.358c2.916-.66,5.75-1.981,5.255-3.769M268.184,125a4.722,4.722,0,0,1-3.246-1.321,3.708,3.708,0,0,1-1.431-2.916c0-.99.633-1.981,1.871-3.026a14.105,14.105,0,0,1,3.8-2.118,9.917,9.917,0,0,1,3.329-.688c.055,1.155.083,1.926.11,2.311s.027.578.027.633c.027,4.76-1.458,7.126-4.457,7.126" transform="translate(-224.771 -79.153)" fill="#7e1d30"/></g></g></svg>